<svg width="22" height="22" viewBox="0 0 22 22" fill="none" xmlns="http://www.w3.org/2000/svg">
<path d="M17.0279 9.97298H6.90508L11.3276 5.55048C11.681 5.19704 11.681 4.61704 11.3276 4.2636C11.1583 4.0939 10.9284 3.99854 10.6887 3.99854C10.449 3.99854 10.2191 4.0939 10.0498 4.2636L4.07758 10.2358C3.72414 10.5892 3.72414 11.1602 4.07758 11.5136L10.0498 17.4858C10.4032 17.8392 10.9741 17.8392 11.3276 17.4858C11.681 17.1323 11.681 16.5614 11.3276 16.208L6.90508 11.7855H17.0279C17.5263 11.7855 17.9341 11.3777 17.9341 10.8792C17.9341 10.3808 17.5263 9.97298 17.0279 9.97298Z" fill="#6F7276"/>
</svg>
