<svg width="20" height="20" viewBox="0 0 20 20" fill="none" xmlns="http://www.w3.org/2000/svg">
<g clip-path="url(#clip0_1301_2033)">
<path d="M11.668 2.724C11.668 2.13984 11.1946 1.6665 10.6105 1.6665H9.39297C8.80797 1.6665 8.33464 2.13984 8.33464 2.724C8.33464 3.20567 8.00463 3.619 7.55547 3.79567C7.48463 3.824 7.4138 3.854 7.34464 3.884C6.90214 4.07567 6.3763 4.01734 6.03464 3.6765C5.83634 3.47835 5.56747 3.36703 5.28714 3.36703C5.0068 3.36703 4.73793 3.47835 4.53964 3.6765L3.67797 4.53817C3.47981 4.73647 3.3685 5.00533 3.3685 5.28567C3.3685 5.56601 3.47981 5.83487 3.67797 6.03317C4.01964 6.37484 4.07797 6.89984 3.88464 7.34317C3.85426 7.41294 3.82509 7.48323 3.79714 7.554C3.62047 8.00317 3.20714 8.33317 2.72547 8.33317C2.1413 8.33317 1.66797 8.8065 1.66797 9.39067V10.609C1.66797 11.1932 2.1413 11.6665 2.72547 11.6665C3.20714 11.6665 3.62047 11.9965 3.79714 12.4457C3.82547 12.5165 3.85547 12.5873 3.88464 12.6565C4.07714 13.099 4.0188 13.6248 3.67797 13.9665C3.47981 14.1648 3.3685 14.4337 3.3685 14.714C3.3685 14.9943 3.47981 15.2632 3.67797 15.4615L4.53964 16.3232C4.73793 16.5213 5.0068 16.6326 5.28714 16.6326C5.56747 16.6326 5.83634 16.5213 6.03464 16.3232C6.3763 15.9815 6.9013 15.9232 7.34464 16.1157C7.4138 16.1465 7.48463 16.1757 7.55547 16.204C8.00463 16.3807 8.33464 16.794 8.33464 17.2757C8.33464 17.8598 8.80797 18.3332 9.39214 18.3332H10.6105C11.1946 18.3332 11.668 17.8598 11.668 17.2757C11.668 16.794 11.998 16.3807 12.4471 16.2032C12.518 16.1757 12.5888 16.1465 12.658 16.1165C13.1005 15.9232 13.6263 15.9823 13.9671 16.3232C14.0653 16.4214 14.1819 16.4993 14.3103 16.5525C14.4386 16.6057 14.5761 16.6331 14.7151 16.6331C14.854 16.6331 14.9915 16.6057 15.1198 16.5525C15.2482 16.4993 15.3648 16.4214 15.463 16.3232L16.3246 15.4615C16.5228 15.2632 16.6341 14.9943 16.6341 14.714C16.6341 14.4337 16.5228 14.1648 16.3246 13.9665C15.983 13.6248 15.9246 13.0998 16.1171 12.6565C16.148 12.5873 16.1771 12.5165 16.2055 12.4457C16.3821 11.9965 16.7955 11.6665 17.2771 11.6665C17.8613 11.6665 18.3346 11.1932 18.3346 10.609V9.3915C18.3346 8.80734 17.8613 8.334 17.2771 8.334C16.7955 8.334 16.3821 8.004 16.2046 7.55484C16.1767 7.48405 16.1475 7.41376 16.1171 7.344C15.9255 6.9015 15.9838 6.37567 16.3246 6.034C16.5228 5.83571 16.6341 5.56684 16.6341 5.2865C16.6341 5.00617 16.5228 4.7373 16.3246 4.539L15.463 3.67734C15.2647 3.47918 14.9958 3.36787 14.7155 3.36787C14.4351 3.36787 14.1663 3.47918 13.968 3.67734C13.6263 4.019 13.1013 4.07734 12.658 3.88484C12.5882 3.85418 12.5179 3.82473 12.4471 3.7965C11.998 3.619 11.668 3.20484 11.668 2.724Z" stroke="#7E7E7E" stroke-width="1.5" stroke-linecap="round" stroke-linejoin="round"/>
<path d="M13.3346 9.99984C13.3346 10.8839 12.9834 11.7317 12.3583 12.3569C11.7332 12.982 10.8854 13.3332 10.0013 13.3332C9.11725 13.3332 8.2694 12.982 7.64428 12.3569C7.01916 11.7317 6.66797 10.8839 6.66797 9.99984C6.66797 9.11578 7.01916 8.26794 7.64428 7.64281C8.2694 7.01769 9.11725 6.6665 10.0013 6.6665C10.8854 6.6665 11.7332 7.01769 12.3583 7.64281C12.9834 8.26794 13.3346 9.11578 13.3346 9.99984Z" stroke="#7E7E7E" stroke-width="1.5" stroke-linecap="round" stroke-linejoin="round"/>
</g>
<defs>
<clipPath id="clip0_1301_2033">
<rect width="20" height="20" fill="white"/>
</clipPath>
</defs>
</svg>
