<svg width="25" height="24" viewBox="0 0 25 24" fill="none" xmlns="http://www.w3.org/2000/svg">
<path d="M12.5 6.49969C15.26 6.49969 17.5 8.73969 17.5 11.4997C17.5 12.0097 17.4 12.4997 17.26 12.9597L20.32 16.0197C21.71 14.7897 22.81 13.2497 23.5 11.4897C21.77 7.10969 17.5 3.99969 12.5 3.99969C11.23 3.99969 10.01 4.19969 8.86 4.56969L11.03 6.73969C11.5 6.59969 11.99 6.49969 12.5 6.49969ZM3.21 3.15969C2.82 3.54969 2.82 4.17969 3.21 4.56969L5.18 6.53969C3.56 7.82969 2.27 9.52969 1.5 11.4997C3.23 15.8897 7.5 18.9997 12.5 18.9997C14.02 18.9997 15.47 18.6997 16.81 18.1797L19.53 20.8997C19.92 21.2897 20.55 21.2897 20.94 20.8997C21.33 20.5097 21.33 19.8797 20.94 19.4897L4.63 3.15969C4.24 2.76969 3.6 2.76969 3.21 3.15969ZM12.5 16.4997C9.74 16.4997 7.5 14.2597 7.5 11.4997C7.5 10.7297 7.68 9.99969 7.99 9.35969L9.56 10.9297C9.53 11.1097 9.5 11.2997 9.5 11.4997C9.5 13.1597 10.84 14.4997 12.5 14.4997C12.7 14.4997 12.88 14.4697 13.07 14.4297L14.64 15.9997C13.99 16.3197 13.27 16.4997 12.5 16.4997ZM15.47 11.1697C15.32 9.76969 14.22 8.67969 12.83 8.52969L15.47 11.1697Z" fill="#6F7276"/>
</svg>
