<svg width="19" height="19" viewBox="0 0 19 19" fill="none" xmlns="http://www.w3.org/2000/svg">
<g clip-path="url(#clip0_1301_1792)">
<path d="M12.5632 4.96379C14.3652 6.76583 14.3652 9.68752 12.5632 11.4896M6.03736 11.4896C4.23531 9.68752 4.23531 6.76583 6.03736 4.96379M3.86193 13.6649C0.858524 10.6615 0.858524 5.79198 3.86193 2.78857M14.7386 2.78857C17.742 5.79198 17.742 10.6615 14.7386 13.6649M9.30025 9.76484C10.1497 9.76484 10.8384 9.07619 10.8384 8.2267C10.8384 7.37721 10.1497 6.68856 9.30025 6.68856C8.45075 6.68856 7.76211 7.37721 7.76211 8.2267C7.76211 9.07619 8.45075 9.76484 9.30025 9.76484ZM9.30025 9.76484V16.6865" stroke="#5D7891" stroke-width="1.53814" stroke-linecap="round" stroke-linejoin="round"/>
</g>
<defs>
<clipPath id="clip0_1301_1792">
<rect width="18.4577" height="18.4577" fill="white" transform="translate(0.0703125 0.536133)"/>
</clipPath>
</defs>
</svg>
