<svg width="20" height="19" viewBox="0 0 20 19" fill="none" xmlns="http://www.w3.org/2000/svg">
<path d="M11.1413 12.0721L8.93365 8.94462C8.58208 8.44656 8.4063 8.19753 8.1901 8.11359C8.00103 8.04018 7.79063 8.04443 7.60469 8.1254C7.39205 8.218 7.22645 8.47392 6.89526 8.98575L4.10028 13.3053C4.02691 13.4187 3.99022 13.4754 3.96424 13.5365C3.94118 13.5907 3.92443 13.6474 3.91431 13.7054C3.90292 13.7708 3.9029 13.8384 3.90287 13.9734L3.90234 15.9174H16.2081L16.2081 13.9643C16.2081 13.8326 16.2081 13.7667 16.1972 13.7028C16.1876 13.6461 16.1717 13.5907 16.1497 13.5375C16.1249 13.4776 16.0899 13.4219 16.0199 13.3103L15.2769 12.1261C14.6202 11.0796 14.2919 10.5563 13.8653 10.3656C13.4923 10.1988 13.0682 10.1873 12.6867 10.3336C12.2503 10.5009 11.8941 11.0056 11.1816 12.0149L11.1413 12.0721ZM11.1413 12.0721L13.8653 15.9174M16.2081 5.15044C16.2081 5.99994 15.5194 6.68858 14.6699 6.68858C13.8205 6.68858 13.1318 5.99994 13.1318 5.15044C13.1318 4.30095 13.8205 3.6123 14.6699 3.6123C15.5194 3.6123 16.2081 4.30095 16.2081 5.15044Z" stroke="#5D7891" stroke-width="1.53814" stroke-linecap="round" stroke-linejoin="round"/>
</svg>
