<svg width="20" height="20" viewBox="0 0 20 20" fill="none" xmlns="http://www.w3.org/2000/svg">
<path fill-rule="evenodd" clip-rule="evenodd" d="M10.0876 1.69873C10.5128 1.69873 10.9205 1.86764 11.2212 2.16829C11.5218 2.46895 11.6908 2.87673 11.6908 3.30192C11.6908 3.72711 11.5218 4.13489 11.2212 4.43555C10.9205 4.7362 10.5128 4.90511 10.0876 4.90511C9.66237 4.90511 9.2546 4.7362 8.95394 4.43555C8.65328 4.13489 8.48438 3.72711 8.48438 3.30192C8.48438 2.87673 8.65328 2.46895 8.95394 2.16829C9.2546 1.86764 9.66237 1.69873 10.0876 1.69873Z" fill="black"/>
<path fill-rule="evenodd" clip-rule="evenodd" d="M10.0876 8.11182C10.5128 8.11182 10.9205 8.28072 11.2212 8.58138C11.5218 8.88204 11.6908 9.28981 11.6908 9.71501C11.6908 10.1402 11.5218 10.548 11.2212 10.8486C10.9205 11.1493 10.5128 11.3182 10.0876 11.3182C9.66237 11.3182 9.2546 11.1493 8.95394 10.8486C8.65328 10.548 8.48438 10.1402 8.48438 9.71501C8.48438 9.28981 8.65328 8.88204 8.95394 8.58138C9.2546 8.28072 9.66237 8.11182 10.0876 8.11182Z" fill="black"/>
<path fill-rule="evenodd" clip-rule="evenodd" d="M10.0876 14.5244C10.5128 14.5244 10.9205 14.6933 11.2212 14.994C11.5218 15.2946 11.6908 15.7024 11.6908 16.1276C11.6908 16.5528 11.5218 16.9606 11.2212 17.2612C10.9205 17.5619 10.5128 17.7308 10.0876 17.7308C9.66237 17.7308 9.2546 17.5619 8.95394 17.2612C8.65328 16.9606 8.48438 16.5528 8.48438 16.1276C8.48438 15.7024 8.65328 15.2946 8.95394 14.994C9.2546 14.6933 9.66237 14.5244 10.0876 14.5244Z" fill="black"/>
</svg>
