<svg width="21" height="20" viewBox="0 0 21 20" fill="none" xmlns="http://www.w3.org/2000/svg">
<path d="M11.1316 4.12547L9.95648 4.12306C7.27595 4.11665 4.94892 6.29458 4.93048 8.93263V11.9707C4.93048 12.6039 4.85032 13.222 4.50483 13.7486L4.27478 14.0997C3.92448 14.632 4.30123 15.3454 4.93048 15.3454H16.1769C16.8061 15.3454 17.1821 14.632 16.8326 14.0997L16.6025 13.7486C16.2578 13.222 16.1769 12.6031 16.1769 11.9699V8.93343C16.1448 6.29458 13.8122 4.13188 11.1316 4.12547Z" stroke="#7C7B84" stroke-width="1.20239" stroke-linecap="round" stroke-linejoin="round"/>
<path d="M12.958 15.3457C12.958 15.9835 12.7046 16.5952 12.2537 17.0461C11.8027 17.4971 11.191 17.7505 10.5532 17.7505C9.91543 17.7505 9.30377 17.4971 8.85278 17.0461C8.4018 16.5952 8.14844 15.9835 8.14844 15.3457" stroke="#7C7B84" stroke-width="1.20239" stroke-linecap="round" stroke-linejoin="round"/>
<path d="M10.5524 1.71826C10.9776 1.71826 11.3854 1.88717 11.686 2.18783C11.9867 2.48848 12.1556 2.89626 12.1556 3.32145V4.12305H8.94922V3.32145C8.94922 2.89626 9.11813 2.48848 9.41878 2.18783C9.71944 1.88717 10.1272 1.71826 10.5524 1.71826Z" stroke="#7C7B84" stroke-width="1.20239" stroke-linecap="round" stroke-linejoin="round"/>
</svg>
