<svg width="21" height="20" viewBox="0 0 21 20" fill="none" xmlns="http://www.w3.org/2000/svg">
<path d="M8.14941 3.13037H4.14144C3.69873 3.13037 3.33984 3.48926 3.33984 3.93197V7.93994C3.33984 8.38265 3.69873 8.74154 4.14144 8.74154H8.14941C8.59212 8.74154 8.95101 8.38265 8.95101 7.93994V3.93197C8.95101 3.48926 8.59212 3.13037 8.14941 3.13037Z" stroke="grey" stroke-width="1.44287" stroke-linecap="round" stroke-linejoin="round"/>
<path d="M8.14941 11.9478H4.14144C3.69873 11.9478 3.33984 12.3066 3.33984 12.7493V16.7573C3.33984 17.2 3.69873 17.5589 4.14144 17.5589H8.14941C8.59212 17.5589 8.95101 17.2 8.95101 16.7573V12.7493C8.95101 12.3066 8.59212 11.9478 8.14941 11.9478Z" stroke="grey" stroke-width="1.44287" stroke-linecap="round" stroke-linejoin="round"/>
<path d="M16.9658 3.13037H12.9578C12.5151 3.13037 12.1562 3.48926 12.1562 3.93197V7.93994C12.1562 8.38265 12.5151 8.74154 12.9578 8.74154H16.9658C17.4085 8.74154 17.7674 8.38265 17.7674 7.93994V3.93197C17.7674 3.48926 17.4085 3.13037 16.9658 3.13037Z" stroke="grey" stroke-width="1.44287" stroke-linecap="round" stroke-linejoin="round"/>
<path d="M16.9658 11.9478H12.9578C12.5151 11.9478 12.1562 12.3066 12.1562 12.7493V16.7573C12.1562 17.2 12.5151 17.5589 12.9578 17.5589H16.9658C17.4085 17.5589 17.7674 17.2 17.7674 16.7573V12.7493C17.7674 12.3066 17.4085 11.9478 16.9658 11.9478Z" stroke="grey" stroke-width="1.44287" stroke-linecap="round" stroke-linejoin="round"/>
</svg>
