<svg width="19" height="19" viewBox="0 0 19 19" fill="none" xmlns="http://www.w3.org/2000/svg">
<path fill-rule="evenodd" clip-rule="evenodd" d="M10.4785 3.71686C10.4785 3.08769 9.96845 2.57764 9.33927 2.57764C8.71009 2.57764 8.20004 3.08769 8.20004 3.71686V8.27377H3.64313C3.01396 8.27377 2.50391 8.78382 2.50391 9.413C2.50391 10.0422 3.01395 10.5522 3.64313 10.5522H8.20004V15.1091C8.20004 15.7383 8.71009 16.2484 9.33927 16.2484C9.96845 16.2484 10.4785 15.7383 10.4785 15.1091V10.5522H15.0354C15.6646 10.5522 16.1746 10.0422 16.1746 9.413C16.1746 8.78382 15.6646 8.27377 15.0354 8.27377H10.4785V3.71686Z" fill="white"/>
</svg>
